<svg width="80" height="80" viewBox="0 0 80 80" fill="none" xmlns="http://www.w3.org/2000/svg">
<g id="LightBulbOutline">
<path id="Vector" d="M32.21 56.6667H47.7867M40 10V13.3333M61.2133 18.7867L58.8567 21.1433M70 40H66.6667M13.3333 40H10M21.1433 21.1433L18.7867 18.7867M28.2133 51.7867C25.8829 49.4556 24.296 46.4859 23.6533 43.253C23.0105 40.0201 23.3408 36.6692 24.6024 33.624C25.864 30.5789 28.0002 27.9761 30.741 26.145C33.4817 24.3138 36.7038 23.3364 40 23.3364C43.2962 23.3364 46.5183 24.3138 49.259 26.145C51.9998 27.9761 54.136 30.5789 55.3976 33.624C56.6592 36.6692 56.9895 40.0201 56.3467 43.253C55.704 46.4859 54.1171 49.4556 51.7867 51.7867L49.96 53.61C48.9157 54.6545 48.0874 55.8945 47.5223 57.2591C46.9572 58.6237 46.6665 60.0863 46.6667 61.5633V63.3333C46.6667 65.1014 45.9643 66.7971 44.714 68.0474C43.4638 69.2976 41.7681 70 40 70C38.2319 70 36.5362 69.2976 35.286 68.0474C34.0357 66.7971 33.3333 65.1014 33.3333 63.3333V61.5633C33.3333 58.58 32.1467 55.7167 30.04 53.61L28.2133 51.7867Z" stroke="#296789" stroke-width="4" stroke-linecap="round" stroke-linejoin="round"/>
</g>
</svg>
