<svg width="80" height="80" viewBox="0 0 80 80" fill="none" xmlns="http://www.w3.org/2000/svg">
<g id="UserGroupOutline">
<path id="Vector" d="M56.6667 66.6666H73.3334V59.9999C73.3332 57.9217 72.6856 55.8952 71.4805 54.202C70.2754 52.5089 68.5727 51.2332 66.6092 50.5524C64.6456 49.8716 62.5188 49.8195 60.5242 50.4033C58.5297 50.9871 56.7666 52.1778 55.48 53.8099M56.6667 66.6666H23.3334M56.6667 66.6666V59.9999C56.6667 57.8133 56.2467 55.7232 55.48 53.8099M55.48 53.8099C54.2422 50.7164 52.1059 48.0648 49.3467 46.197C46.5875 44.3292 43.332 43.3309 40 43.3309C36.6681 43.3309 33.4126 44.3292 30.6534 46.197C27.8942 48.0648 25.7579 50.7164 24.52 53.8099M23.3334 66.6666H6.66669V59.9999C6.66684 57.9217 7.31447 55.8952 8.51956 54.202C9.72464 52.5089 11.4273 51.2332 13.3909 50.5524C15.3544 49.8716 17.4813 49.8195 19.4758 50.4033C21.4704 50.9871 23.2334 52.1778 24.52 53.8099M23.3334 66.6666V59.9999C23.3334 57.8133 23.7534 55.7232 24.52 53.8099M50 23.3333C50 25.9854 48.9465 28.529 47.0711 30.4043C45.1957 32.2797 42.6522 33.3333 40 33.3333C37.3479 33.3333 34.8043 32.2797 32.929 30.4043C31.0536 28.529 30 25.9854 30 23.3333C30 20.6811 31.0536 18.1375 32.929 16.2622C34.8043 14.3868 37.3479 13.3333 40 13.3333C42.6522 13.3333 45.1957 14.3868 47.0711 16.2622C48.9465 18.1375 50 20.6811 50 23.3333ZM70 33.3333C70 35.1014 69.2976 36.7971 68.0474 38.0473C66.7972 39.2975 65.1015 39.9999 63.3334 39.9999C61.5652 39.9999 59.8696 39.2975 58.6193 38.0473C57.3691 36.7971 56.6667 35.1014 56.6667 33.3333C56.6667 31.5651 57.3691 29.8695 58.6193 28.6192C59.8696 27.369 61.5652 26.6666 63.3334 26.6666C65.1015 26.6666 66.7972 27.369 68.0474 28.6192C69.2976 29.8695 70 31.5651 70 33.3333ZM23.3334 33.3333C23.3334 35.1014 22.631 36.7971 21.3807 38.0473C20.1305 39.2975 18.4348 39.9999 16.6667 39.9999C14.8986 39.9999 13.2029 39.2975 11.9526 38.0473C10.7024 36.7971 10 35.1014 10 33.3333C10 31.5651 10.7024 29.8695 11.9526 28.6192C13.2029 27.369 14.8986 26.6666 16.6667 26.6666C18.4348 26.6666 20.1305 27.369 21.3807 28.6192C22.631 29.8695 23.3334 31.5651 23.3334 33.3333Z" stroke="#296789" stroke-width="4" stroke-linecap="round" stroke-linejoin="round"/>
</g>
</svg>
