<svg width="80" height="80" viewBox="0 0 80 80" fill="none" xmlns="http://www.w3.org/2000/svg">
<g id="BriefcaseOutline">
<path id="Vector" d="M70 44.1834C60.4683 48.0375 50.2814 50.0126 40 50.0001C29.39 50.0001 19.2667 47.9334 10 44.1834M53.3333 20.0001V13.3334C53.3333 11.5653 52.631 9.86961 51.3807 8.61937C50.1305 7.36913 48.4348 6.66675 46.6667 6.66675H33.3333C31.5652 6.66675 29.8695 7.36913 28.6193 8.61937C27.369 9.86961 26.6667 11.5653 26.6667 13.3334V20.0001M40 40.0001H40.0333M16.6667 66.6667H63.3333C65.1014 66.6667 66.7971 65.9644 68.0474 64.7141C69.2976 63.4639 70 61.7682 70 60.0001V26.6667C70 24.8986 69.2976 23.2029 68.0474 21.9527C66.7971 20.7025 65.1014 20.0001 63.3333 20.0001H16.6667C14.8986 20.0001 13.2029 20.7025 11.9526 21.9527C10.7024 23.2029 10 24.8986 10 26.6667V60.0001C10 61.7682 10.7024 63.4639 11.9526 64.7141C13.2029 65.9644 14.8986 66.6667 16.6667 66.6667Z" stroke="#296789" stroke-width="4" stroke-linecap="round" stroke-linejoin="round"/>
</g>
</svg>
