<svg width="90" height="90" viewBox="0 0 90 90" fill="none" xmlns="http://www.w3.org/2000/svg">
<path d="M45 26.7778C37.4514 26.7778 31.3333 30.855 31.3333 35.8889C31.3333 40.9228 37.4514 45 45 45C52.5486 45 58.6667 49.0772 58.6667 54.1111C58.6667 59.145 52.5486 63.2222 45 63.2222M45 26.7778C50.0567 26.7778 54.4756 28.6091 56.8399 31.3333M45 26.7778V22.2222M45 26.7778V63.2222M45 63.2222V67.7778M45 63.2222C39.9433 63.2222 35.5244 61.3909 33.1601 58.6667M86 45C86 50.3842 84.9395 55.7157 82.8791 60.69C80.8186 65.6644 77.7986 70.1842 73.9914 73.9914C70.1842 77.7986 65.6644 80.8186 60.69 82.8791C55.7157 84.9395 50.3842 86 45 86C39.6158 86 34.2843 84.9395 29.31 82.8791C24.3356 80.8186 19.8158 77.7986 16.0086 73.9914C12.2014 70.1842 9.18138 65.6644 7.12094 60.69C5.0605 55.7157 4 50.3842 4 45C4 34.1261 8.31963 23.6976 16.0086 16.0086C23.6976 8.31963 34.1261 4 45 4C55.8739 4 66.3024 8.31963 73.9914 16.0086C81.6804 23.6976 86 34.1261 86 45Z" stroke="#296789" stroke-width="4" stroke-linecap="round" stroke-linejoin="round"/>
</svg>
