<svg width="79" height="76" viewBox="0 0 79 76" fill="none" xmlns="http://www.w3.org/2000/svg">
<path d="M72.9947 2L65.4947 9.5M65.4947 9.5L76.7447 20.75L63.6197 33.875L52.3697 22.625M65.4947 9.5L52.3697 22.625M36.9572 38.0375C38.8935 39.948 40.4327 42.2226 41.4863 44.7305C42.5398 47.2383 43.0869 49.9297 43.096 52.6499C43.1051 55.37 42.5761 58.0651 41.5394 60.5799C40.5026 63.0947 38.9787 65.3796 37.0552 67.303C35.1318 69.2265 32.8469 70.7504 30.3321 71.7872C27.8172 72.8239 25.1222 73.353 22.4021 73.3438C19.6819 73.3347 16.9905 72.7876 14.4826 71.7341C11.9748 70.6805 9.70018 69.1413 7.78968 67.205C4.03267 63.3151 1.95379 58.1052 2.00078 52.6974C2.04777 47.2895 4.21688 42.1165 8.04092 38.2925C11.865 34.4684 17.038 32.2993 22.4458 32.2523C27.8536 32.2054 33.0635 34.2842 36.9534 38.0413L36.9572 38.0375ZM36.9572 38.0375L52.3697 22.625" stroke="#296789" stroke-width="4" stroke-linecap="round" stroke-linejoin="round"/>
</svg>
