<svg width="110" height="122" viewBox="0 0 110 122" fill="none" xmlns="http://www.w3.org/2000/svg">
<path d="M80.5685 88.6378L80.5685 88.6379C80.3874 89.4346 79.6792 90 78.862 90H33.0581H30.6077L31.0987 92.4008L32.1213 97.4008L32.4484 99H34.0808H76.0211C77.144 99 77.9764 100.043 77.7275 101.138L76.8655 104.931L76.5135 106.48L77.9424 107.173C80.2003 108.269 81.75 110.581 81.75 113.25C81.75 116.978 78.7279 120 75 120C71.2721 120 68.25 116.978 68.25 113.25C68.25 111.361 69.0243 109.657 70.2782 108.429L73.778 105H68.8786H36.1213H31.2215L34.7217 108.429C35.9757 109.657 36.75 111.361 36.75 113.25C36.75 116.978 33.7279 120 30 120C26.2721 120 23.25 116.978 23.25 113.25C23.25 110.749 24.6106 108.564 26.6425 107.395L27.8943 106.676L27.6049 105.261L16.6286 51.5992L16.3015 50H14.6692H3.75C2.78348 50 2 49.2165 2 48.25V45.75C2 44.7835 2.78348 44 3.75 44H19.7702C20.6016 44 21.3181 44.5849 21.4846 45.3991L21.4846 45.3992L22.9168 52.4008L23.2439 54H24.8762H86.2484C87.3713 54 88.2038 55.0428 87.9549 56.1378L80.5685 88.6378Z" stroke="#296789" stroke-width="4"/>
<g clip-path="url(#clip0_14_241)">
<path d="M33.3417 39.0204L41.5233 35.314M41.5233 35.314L70.1589 22.3418L83.1312 50.9774M41.5233 35.314L30.3352 65.0339C30.0385 65.8221 30.067 66.6959 30.4145 67.4631C30.7621 68.2303 31.4001 68.828 32.1884 69.1247L41.1043 72.4811M83.1312 50.9774L86.8375 59.159M83.1312 50.9774L71.943 80.6973C71.6463 81.4855 71.0486 82.1236 70.2814 82.4711C69.5143 82.8186 68.6404 82.8472 67.8522 82.5505L58.9363 79.194M41.1043 72.4811C41.8925 72.7779 42.7664 72.7493 43.5335 72.4018C44.3007 72.0542 44.8984 71.4162 45.1951 70.628L49.6704 58.74C49.9671 57.9518 50.5648 57.3137 51.332 56.9662C52.0992 56.6186 52.973 56.5901 53.7612 56.8868L59.7052 59.1245C60.4934 59.4212 61.1314 60.0189 61.479 60.7861C61.8265 61.5532 61.8551 62.427 61.5583 63.2153L57.0831 75.1032C56.7864 75.8914 56.8149 76.7652 57.1624 77.5324C57.51 78.2996 58.148 78.8973 58.9363 79.194M41.1043 72.4811L58.9363 79.194" stroke="#296789" stroke-width="4" stroke-linecap="round" stroke-linejoin="round"/>
</g>
<defs>
<clipPath id="clip0_14_241">
<rect width="76.2145" height="76.2145" fill="white" transform="translate(37.8515) rotate(20.629)"/>
</clipPath>
</defs>
</svg>
