<svg width="16" height="16" viewBox="0 0 16 16" fill="none" xmlns="http://www.w3.org/2000/svg">
<g id="square-pt-svgrepo-com 1" clip-path="url(#clip0_156_776)">
<path id="Vector" d="M2.008 0C0.90592 0 0 0.90576 0 2.008C0 2.97072 0.69072 3.78336 1.6 3.97376V12.0422C0.69072 12.2326 0 13.0454 0 14.0082C0 15.1104 0.90576 16.016 2.008 16.016C2.97552 16.016 3.7824 15.3162 3.96656 14.4H12.0394C12.2237 15.3171 13.0398 16.016 14.0082 16.016C15.0722 16.016 15.945 15.1699 16.0046 14.1197C16.0121 14.083 16.0158 14.0456 16.0158 14.0082C16.0158 13.9707 16.0121 13.9333 16.0046 13.8966C15.9525 12.9787 15.2792 12.217 14.4 12.0394V3.97664C15.2792 3.79904 15.9525 3.03744 16.0048 2.11968C16.0123 2.08297 16.016 2.04561 16.016 2.00816C16.016 1.97071 16.0123 1.93335 16.0048 1.89664C15.9448 0.8464 15.0722 0 14.008 0C13.0454 0 12.2326 0.69072 12.0422 1.6H3.9632C3.7728 0.69184 2.9696 0 2.008 0ZM2.008 1.12C2.50512 1.12 2.896 1.51104 2.896 2.008C2.896 2.50512 2.50512 2.896 2.008 2.896C1.5112 2.896 1.12 2.50512 1.12 2.008C1.12 1.5112 1.51104 1.12 2.008 1.12ZM14.008 1.12C14.5051 1.12 14.896 1.51104 14.896 2.008C14.896 2.50512 14.5051 2.896 14.008 2.896C13.511 2.896 13.12 2.50512 13.12 2.008C13.12 1.5112 13.511 1.12 14.008 1.12ZM3.87488 2.72H12.1341C12.2349 2.98137 12.3888 3.21902 12.586 3.41798C12.7832 3.61694 13.0195 3.77289 13.28 3.876V12.14C13.0222 12.2421 12.788 12.3959 12.5919 12.5919C12.3959 12.788 12.2421 13.0222 12.14 13.28H3.868C3.7661 13.0201 3.61149 12.7841 3.41392 12.5869C3.21634 12.3897 2.98008 12.2355 2.72 12.1341V3.88192C2.98288 3.77952 3.22142 3.62324 3.42029 3.42313C3.61916 3.22302 3.77395 2.98351 3.87472 2.72H3.87488ZM2.008 13.12C2.50496 13.12 2.89584 13.511 2.89584 14.008C2.89584 14.5051 2.50496 14.896 2.00784 14.896C1.5112 14.896 1.12 14.5051 1.12 14.008C1.12 13.5112 1.51104 13.12 2.008 13.12ZM14.008 13.12C14.505 13.12 14.8958 13.511 14.8958 14.008C14.8958 14.5051 14.505 14.896 14.0078 14.896C13.5109 14.896 13.1198 14.5051 13.1198 14.008C13.1198 13.511 13.511 13.12 14.008 13.12Z" fill="#296789"/>
</g>
<defs>
<clipPath id="clip0_156_776">
<rect width="16" height="16" fill="white"/>
</clipPath>
</defs>
</svg>
