<svg width="19" height="20" viewBox="0 0 19 20" fill="none" xmlns="http://www.w3.org/2000/svg">
<g id="box">
<path id="Vector" d="M16.625 13.1668V6.83346C16.6247 6.5558 16.5514 6.2831 16.4125 6.04271C16.2735 5.80233 16.0738 5.6027 15.8333 5.46388L10.2917 2.29721C10.051 2.15824 9.77793 2.08508 9.5 2.08508C9.22207 2.08508 8.94903 2.15824 8.70833 2.29721L3.16667 5.46388C2.92621 5.6027 2.72648 5.80233 2.58753 6.04271C2.44858 6.2831 2.37528 6.5558 2.375 6.83346V13.1668C2.37528 13.4445 2.44858 13.7172 2.58753 13.9575C2.72648 14.1979 2.92621 14.3975 3.16667 14.5364L8.70833 17.703C8.94903 17.842 9.22207 17.9152 9.5 17.9152C9.77793 17.9152 10.051 17.842 10.2917 17.703L15.8333 14.5364C16.0738 14.3975 16.2735 14.1979 16.4125 13.9575C16.5514 13.7172 16.6247 13.4445 16.625 13.1668Z" stroke="#296789" stroke-width="1.235" stroke-linecap="round" stroke-linejoin="round"/>
<path id="Vector_2" d="M2.58875 6.01013L9.49999 10.008L16.4112 6.01013" stroke="#296789" stroke-width="1.235" stroke-linecap="round" stroke-linejoin="round"/>
<path id="Vector_3" d="M9.5 17.98V10" stroke="#296789" stroke-width="1.235" stroke-linecap="round" stroke-linejoin="round"/>
</g>
</svg>
