<svg width="29" height="29" viewBox="0 0 29 29" fill="none" xmlns="http://www.w3.org/2000/svg">
<path d="M15.222 24.3615L15.2217 24.3619C15.0942 24.4895 14.9428 24.5907 14.7762 24.6598C14.6096 24.7289 14.431 24.7644 14.2506 24.7644C14.0702 24.7644 13.8916 24.7289 13.725 24.6598C13.5584 24.5907 13.407 24.4895 13.2795 24.3619L13.2791 24.3615L8.23944 19.323C8.23941 19.323 8.23937 19.3229 8.23934 19.3229C7.05069 18.1341 6.24123 16.6196 5.9133 14.9709C5.58536 13.322 5.75371 11.613 6.39707 10.0598C7.04043 8.50669 8.12989 7.17919 9.5277 6.24522C10.9255 5.31125 12.5689 4.81274 14.25 4.81274C15.9311 4.81274 17.5745 5.31125 18.9723 6.24522C20.3701 7.17919 21.4596 8.50669 22.1029 10.0598C22.7463 11.613 22.9146 13.322 22.5867 14.9709C22.2588 16.6197 21.4493 18.1342 20.2606 19.323C20.2606 19.323 20.2606 19.323 20.2606 19.323L15.222 24.3615Z" stroke="#296789" stroke-width="2" stroke-linecap="round" stroke-linejoin="round"/>
<path d="M16.8125 13.3125C16.8125 13.9921 16.5425 14.6439 16.062 15.1245C15.5814 15.605 14.9296 15.875 14.25 15.875C13.5704 15.875 12.9186 15.605 12.438 15.1245C11.9575 14.6439 11.6875 13.9921 11.6875 13.3125C11.6875 12.6329 11.9575 11.9811 12.438 11.5005C12.9186 11.02 13.5704 10.75 14.25 10.75C14.9296 10.75 15.5814 11.02 16.062 11.5005C16.5425 11.9811 16.8125 12.6329 16.8125 13.3125Z" stroke="#296789" stroke-width="2" stroke-linecap="round" stroke-linejoin="round"/>
</svg>
